# File created by Blade
# Date/Time:  Mon Sep 22 17:38:34 2014
# Frame Rate: 120.000 fps
#------------------------------------------------------
:FULLY-SPECIFIED
:DEGREES
2667
root 2.229939 38.113814 4.667727 12.327846 33.501081 26.488641
RightUpLeg 8.957936 -16.492116 -16.273179
RightLeg -4.425239 -0.000000 0.000000
RightFoot -16.159423 -33.955165 9.426437
RightToeBase 1.252828 -0.000000 -0.000000
LeftUpLeg -5.690432 25.254015 26.513836
LeftLeg 92.923190 -0.000000 -0.000000
LeftFoot 18.138713 31.077257 -25.153850
LeftToeBase -3.467172 -0.000000 0.000000
Spine 10.778617 -1.481486 -3.964134
RightShoulder 0.658485 -18.693765 -18.231223
RightArm 29.509660 12.389450 54.720935
RightForeArm 11.546868 -0.000000 107.299744
RightHand 4.105591 -0.000000 -35.417267
RightHandThumb1 -24.326973 -0.000000 -32.862282
LeftShoulder -27.679479 37.423532 -18.230373
LeftArm 29.160812 -3.351463 -69.043239
LeftForeArm 30.721553 -0.000000 67.265256
LeftHand -29.260064 -0.000000 14.204265
LeftHandThumb1 -26.253704 0.000000 33.147579
Head 14.175243 -11.447329 -19.226694
2668
root 2.246141 38.127050 4.665464 12.374852 33.471200 26.686660
RightUpLeg 9.008532 -16.497468 -16.489807
RightLeg -4.378687 -0.000000 0.000000
RightFoot -16.125245 -33.958164 9.373753
RightToeBase 1.279903 -0.000000 -0.000000
LeftUpLeg -5.553645 25.365549 26.543280
LeftLeg 93.050532 -0.000000 -0.000000
LeftFoot 18.067086 31.134827 -25.193504
LeftToeBase -3.503506 -0.000000 0.000000
Spine 10.872324 -1.400823 -4.108710
RightShoulder 0.717656 -18.649888 -18.312926
RightArm 29.330370 12.309048 54.622140
RightForeArm 11.303630 -0.000000 107.507552
RightHand 4.034010 -0.000000 -35.651072
RightHandThumb1 -24.326973 -0.000000 -32.862282
LeftShoulder -27.671752 37.376433 -18.219635
LeftArm 29.112437 -3.601183 -69.157677
LeftForeArm 30.593898 -0.000000 66.747669
LeftHand -28.749433 0.000000 14.913479
LeftHandThumb1 -26.253704 0.000000 33.147579
Head 14.245406 -11.550084 -19.341879
2669
root 2.262670 38.141005 4.661200 12.433511 33.453182 26.908531
RightUpLeg 9.056032 -16.528039 -16.730419
RightLeg -4.317249 -0.000000 0.000000
RightFoot -16.120978 -33.943131 9.361572
RightToeBase 1.342018 -0.000000 -0.000000
LeftUpLeg -5.444686 25.492846 26.537909
LeftLeg 93.187654 -0.000000 -0.000000
LeftFoot 18.081317 31.179705 -25.088165
LeftToeBase -3.439509 -0.000000 0.000000
Spine 10.979040 -1.322644 -4.260127
RightShoulder 0.689743 -18.716188 -18.355831
RightArm 29.316468 12.257685 54.515151
RightForeArm 11.105713 -0.000000 107.676732
RightHand 4.005548 -0.000000 -35.814165
RightHandThumb1 -24.326973 -0.000000 -32.862282
LeftShoulder -27.656137 37.320945 -18.219110
LeftArm 29.033764 -3.875836 -69.278109
LeftForeArm 30.566690 0.000000 66.343407
LeftHand -28.819445 0.000000 15.257188
LeftHandThumb1 -26.253704 0.000000 33.147579
Head 14.293961 -11.658923 -19.476403
2670
root 2.280690 38.154490 4.660700 12.443047 33.418143 27.122925
RightUpLeg 9.151556 -16.559538 -16.981531
RightLeg -4.265395 -0.000000 0.000000
RightFoot -16.101104 -33.911934 9.331600
RightToeBase 1.368760 -0.000000 -0.000000
LeftUpLeg -5.271188 25.626773 26.577527
LeftLeg 93.327689 -0.000000 -0.000000
LeftFoot 18.049696 31.197607 -25.144362
LeftToeBase -3.372178 -0.000000 0.000000
Spine 11.131407 -1.210021 -4.421810
RightShoulder 0.683832 -18.706723 -18.380229
RightArm 29.193425 12.216343 54.402659
RightForeArm 10.923429 -0.000000 107.875068
RightHand 3.980512 -0.000000 -35.890027
RightHandThumb1 -24.326973 -0.000000 -32.862282
LeftShoulder -27.623122 37.262937 -18.215435
LeftArm 28.971681 -4.166168 -69.369165
LeftForeArm 30.369980 -0.000000 65.947922
LeftHand -29.071593 -0.000000 15.763088
LeftHandThumb1 -26.253704 0.000000 33.147579
Head 14.341799 -11.804112 -19.580971
2671
root 2.297162 38.166161 4.660943 12.445047 33.395301 27.302043
RightUpLeg 9.231000 -16.625902 -17.200143
RightLeg -4.199003 -0.000000 0.000000
RightFoot -16.071871 -33.852018 9.269943
RightToeBase 1.418332 -0.000000 -0.000000
LeftUpLeg -5.119813 25.759493 26.649112
LeftLeg 93.479268 -0.000000 -0.000000
LeftFoot 18.147607 31.082631 -25.065672
LeftToeBase -3.501650 -0.000000 0.000000
Spine 11.264683 -1.119159 -4.540596
RightShoulder 0.677151 -18.762087 -18.427555
RightArm 29.129629 12.203721 54.296951
RightForeArm 10.828567 -0.000000 108.084157
RightHand 3.912197 -0.000000 -35.934882
RightHandThumb1 -24.326973 -0.000000 -32.862282
LeftShoulder -27.659126 37.227533 -18.271952
LeftArm 28.936161 -4.473826 -69.485519
LeftForeArm 30.279536 0.000000 65.607195
LeftHand -29.270074 -0.000000 15.903118
LeftHandThumb1 -26.253704 0.000000 33.147579
Head 14.388808 -11.910798 -19.704623
